<svg width="90" height="68" viewBox="0 0 90 68" fill="none" xmlns="http://www.w3.org/2000/svg">
<path d="M53.9999 66.6081H54.9999V65.6525L54.0453 65.6091L53.9999 66.6081ZM41.9268 63.6808L41.4743 62.789L39.6304 63.7246L41.5087 64.5892L41.9268 63.6808ZM53.9999 66.6421H52.9999V67.6421H53.9999V66.6421ZM85.9999 66.6421V67.6421H88.4141L86.707 65.935L85.9999 66.6421ZM77.4592 58.1014L76.7834 57.3644L76.0138 58.0702L76.7521 58.8085L77.4592 58.1014ZM31.9453 11.7493L31.2207 11.0602L29.7912 12.5634L31.8575 12.7455L31.9453 11.7493ZM54.0453 65.6091C49.8825 65.42 45.9319 64.4233 42.3449 62.7724L41.5087 64.5892C45.3256 66.3459 49.5289 67.406 53.9545 67.6071L54.0453 65.6091ZM54.9999 66.6421V66.6081H52.9999V66.6421H54.9999ZM55.4999 65.6421H53.9999V67.6421H55.4999V65.6421ZM85.9999 65.6421H55.4999V67.6421H85.9999V65.6421ZM76.7521 58.8085L85.2928 67.3492L86.707 65.935L78.1663 57.3943L76.7521 58.8085ZM86.9999 34.1421C86.9999 43.3337 83.0644 51.6046 76.7834 57.3644L78.1351 58.8385C84.8118 52.7158 88.9999 43.9173 88.9999 34.1421H86.9999ZM55.4999 2.64209C72.8969 2.64209 86.9999 16.7451 86.9999 34.1421H88.9999C88.9999 15.6406 74.0014 0.64209 55.4999 0.64209V2.64209ZM32.67 12.4385C38.4099 6.40264 46.5149 2.64209 55.4999 2.64209V0.64209C45.9446 0.64209 37.3224 4.64391 31.2207 11.0602L32.67 12.4385ZM57.9999 39.1421C57.9999 24.2555 46.5871 12.0356 32.0331 10.7532L31.8575 12.7455C45.3882 13.9378 55.9999 25.3012 55.9999 39.1421H57.9999ZM42.3793 64.5725C51.646 59.8704 57.9999 50.2491 57.9999 39.1421H55.9999C55.9999 49.4669 50.0955 58.4144 41.4743 62.789L42.3793 64.5725Z" fill="#E4D9E6"/>
<mask id="path-2-inside-1" fill="white">
<path fill-rule="evenodd" clip-rule="evenodd" d="M32 66.6376C46.9571 66.3709 59 54.1629 59 39.1421C59 23.9543 46.6878 11.6421 31.5 11.6421C16.3122 11.6421 4 23.9543 4 39.1421C4 45.7173 6.30758 51.7535 10.1571 56.485L0 66.6421H31.5H32V66.6376Z"/>
</mask>
<path d="M32 66.6376L31.9643 64.638L30 64.673V66.6376H32ZM10.1571 56.485L11.5713 57.8992L12.8476 56.6229L11.7085 55.2228L10.1571 56.485ZM0 66.6421L-1.41421 65.2279L-4.82843 68.6421H0V66.6421ZM32 66.6421V68.6421H34V66.6421H32ZM57 39.1421C57 53.0703 45.8329 64.3907 31.9643 64.638L32.0357 68.6373C48.0813 68.3512 61 55.2555 61 39.1421H57ZM31.5 13.6421C45.5833 13.6421 57 25.0588 57 39.1421H61C61 22.8497 47.7924 9.64209 31.5 9.64209V13.6421ZM6 39.1421C6 25.0588 17.4167 13.6421 31.5 13.6421V9.64209C15.2076 9.64209 2 22.8497 2 39.1421H6ZM11.7085 55.2228C8.13854 50.8349 6 45.2409 6 39.1421H2C2 46.1936 4.47662 52.672 8.60565 57.7472L11.7085 55.2228ZM1.41421 68.0563L11.5713 57.8992L8.74285 55.0708L-1.41421 65.2279L1.41421 68.0563ZM31.5 64.6421H0V68.6421H31.5V64.6421ZM32 64.6421H31.5V68.6421H32V64.6421ZM30 66.6376V66.6421H34V66.6376H30Z" fill="#E4D9E6" mask="url(#path-2-inside-1)"/>
</svg>
