<svg width="39" height="30" viewBox="0 0 39 30" fill="none" xmlns="http://www.w3.org/2000/svg">
<path d="M32.7843 2.67167C30.3159 1.53909 27.669 0.704653 24.9015 0.226736C24.8511 0.217513 24.8007 0.240563 24.7748 0.286665C24.4343 0.892125 24.0573 1.682 23.7932 2.30283C20.8166 1.8572 17.8552 1.8572 14.9396 2.30283C14.6755 1.6682 14.2847 0.892125 13.9427 0.286665C13.9168 0.242101 13.8664 0.219051 13.816 0.226736C11.05 0.703125 8.40311 1.53756 5.93324 2.67167C5.91185 2.68089 5.89353 2.69627 5.88136 2.71623C0.8607 10.217 -0.51467 17.5334 0.160041 24.7591C0.163094 24.7944 0.182938 24.8283 0.210415 24.8497C3.52291 27.2824 6.73162 28.7592 9.88075 29.7381C9.93115 29.7534 9.98455 29.735 10.0166 29.6935C10.7615 28.6762 11.4256 27.6036 11.9949 26.4756C12.0285 26.4095 11.9965 26.3311 11.9278 26.305C10.8745 25.9055 9.87158 25.4183 8.90684 24.8651C8.83053 24.8206 8.82442 24.7114 8.89462 24.6592C9.09764 24.507 9.30071 24.3487 9.49456 24.1889C9.52964 24.1597 9.57851 24.1536 9.61975 24.172C15.9577 27.0657 22.8193 27.0657 29.0825 24.172C29.1237 24.1521 29.1726 24.1582 29.2092 24.1874C29.4031 24.3472 29.6061 24.507 29.8107 24.6592C29.8809 24.7114 29.8763 24.8206 29.8 24.8651C28.8352 25.4291 27.8323 25.9055 26.7775 26.3035C26.7088 26.3296 26.6783 26.4095 26.7119 26.4756C27.2935 27.602 27.9575 28.6746 28.6887 29.692C28.7192 29.735 28.7741 29.7534 28.8245 29.7381C31.9889 28.7592 35.1976 27.2824 38.5101 24.8497C38.5391 24.8283 38.5575 24.796 38.5605 24.7606C39.368 16.4069 37.208 9.15052 32.8346 2.71776C32.8239 2.69627 32.8057 2.68089 32.7843 2.67167ZM12.9414 20.3594C11.0332 20.3594 9.46096 18.6076 9.46096 16.4561C9.46096 14.3047 11.0027 12.5529 12.9414 12.5529C14.8953 12.5529 16.4523 14.3201 16.4218 16.4561C16.4218 18.6076 14.88 20.3594 12.9414 20.3594ZM25.8097 20.3594C23.9016 20.3594 22.3293 18.6076 22.3293 16.4561C22.3293 14.3047 23.8711 12.5529 25.8097 12.5529C27.7636 12.5529 29.3206 14.3201 29.2901 16.4561C29.2901 18.6076 27.7636 20.3594 25.8097 20.3594Z" fill="#F1E6F3"/>
</svg>
