<svg width="90" height="91" viewBox="0 0 90 91" fill="none" xmlns="http://www.w3.org/2000/svg"><path fill-rule="evenodd" clip-rule="evenodd" d="M19.847 65.642c-1.725-5.463-2.765-11.555-2.944-18H2.046a42.76 42.76 0 004.878 18h12.923zm.672 2H8.046c5.834 9.778 15.438 17.045 26.805 19.795-6.092-3.836-11.15-10.876-14.332-19.795zM5 66.278v1.364h.735C13.136 80.822 26.981 89.898 43 90.598v.044h2.469c.273 0 .545-.006.817-.018 16.32-.458 30.468-9.606 37.979-22.982H85v-1.364a44.754 44.754 0 004.956-18.636H90v-2C90 21.22 70.544 1.341 46.286.66a18.518 18.518 0 00-1-.017H43v.043C19.075 1.732 0 21.459 0 45.642v2h.044A44.752 44.752 0 005 66.278zm78.076-.636a42.76 42.76 0 004.878-18h-13.92c-.178 6.445-1.219 12.537-2.944 18h11.986zm-14.087 0c1.775-5.407 2.86-11.506 3.045-18H45v18h23.99zm-23.989 2h23.29c-1.196 3.214-2.642 6.153-4.29 8.747-4.782 7.526-11.094 11.935-17.795 12.237-.304.008-.609.013-.914.015a15.657 15.657 0 01-.291-.006V67.642zm-2 0v20.813c-6.05-.919-11.695-5.192-16.062-12.066-1.649-2.594-3.095-5.533-4.29-8.747H43zm0-2H21.948c-1.774-5.407-2.859-11.506-3.044-18H43v18zm27.418 2h11.536c-5.564 9.325-14.556 16.366-25.237 19.384 5.81-3.916 10.63-10.774 13.701-19.384zm-51.543-22H43v-18H21.333c-1.573 5.463-2.458 11.556-2.458 18zm50.73-18c1.573 5.463 2.457 11.556 2.457 18H45v-18h24.605zm14.458 0a42.84 42.84 0 013.937 18H74.062c0-6.4-.848-12.488-2.379-18h12.38zm-78.126 0a42.84 42.84 0 00-3.937 18h14.875c0-6.4.849-12.488 2.38-18H5.936zm.987-2h12.923c3.115-9.865 8.464-17.676 15.004-21.795C22.72 6.782 12.6 14.86 6.924 25.642zm36.076 0H21.948c1.314-4 3.005-7.623 4.99-10.747C31.305 8.022 36.949 3.748 43 2.829v22.813zm25.99 0H45V2.65l.291-.006c.305.002.61.007.914.016 6.7.301 13.013 4.71 17.794 12.236 1.985 3.124 3.677 6.746 4.99 10.747zm14.086 0H71.09c-3.014-9.546-8.12-17.169-14.373-21.384 11.432 3.23 20.93 11.07 26.359 21.384z" fill="#E4D9E6"/></svg>