<svg width="66" height="20" viewBox="0 0 66 20" fill="none" xmlns="http://www.w3.org/2000/svg"><path d="M15.014 19.662H9.051l-3.67-8.905.145 8.905H0V.35h5.526L5.38 8.63 8.64.35h5.83L10.059 9.67l4.956 9.993zm16.008-9.593c0 2.943-.711 5.336-2.134 7.18C27.475 19.082 25.633 20 23.362 20c-2.014 0-3.74-.705-5.18-2.114-1.812-1.784-2.717-4.46-2.717-8.03 0-3.419.945-6.033 2.835-7.842C19.705.67 21.37 0 23.296 0c2.359 0 4.236.909 5.632 2.727 1.396 1.818 2.094 4.265 2.094 7.342zm-5.738.037c0-3.494-.654-5.24-1.961-5.24-.654 0-1.175.458-1.564 1.375-.38.85-.57 2.102-.57 3.753 0 1.626.18 2.887.537 3.783.358.897.855 1.345 1.49 1.345.654 0 1.158-.442 1.511-1.326.371-.884.557-2.114.557-3.69zm8.097 9.556V.35h5.274l2.77 6.78c.15.4.32.858.51 1.375s.4 1.114.629 1.789l.57 1.701c-.203-1.676-.358-3.11-.464-4.303a34.89 34.89 0 01-.16-3.002V.35h5.275v19.312h-5.274l-2.783-7.104a83.246 83.246 0 01-.788-2.133 37.535 37.535 0 01-.617-1.895c.115 1.36.2 2.544.252 3.553.053 1.008.08 1.892.08 2.651v4.928H33.38zM58 8.492h7.713v.801c0 3.72-.587 6.396-1.762 8.03C62.67 19.108 60.776 20 58.267 20c-2.465 0-4.4-.875-5.804-2.627-1.396-1.767-2.094-4.194-2.094-7.28 0-3.126.702-5.59 2.107-7.391C53.881.9 55.802 0 58.24 0c3.234 0 5.58 1.593 7.037 4.778l-5.354 1.851c-.08-.609-.262-1.09-.55-1.445-.287-.354-.647-.531-1.08-.531-1.52 0-2.279 1.972-2.279 5.916 0 1.676.168 2.894.504 3.652.335.76.87 1.139 1.603 1.139.292 0 .557-.067.795-.2.239-.134.44-.322.603-.563.164-.242.292-.536.385-.882.092-.346.139-.732.139-1.157h-2.041V8.493z" fill="#fff"/></svg>