<svg width="31" height="26" viewBox="0 0 31 26" fill="none" xmlns="http://www.w3.org/2000/svg">
<path d="M9.71113 25.1875C21.0291 25.1875 27.2213 15.8084 27.2213 7.67739C27.2213 7.41372 27.2154 7.14418 27.2037 6.88051C28.4083 6.00939 29.4478 4.93038 30.2734 3.69418C29.1516 4.19331 27.9605 4.51929 26.7408 4.66098C28.025 3.8912 28.9866 2.6819 29.4473 1.25727C28.2391 1.97326 26.9179 2.47833 25.5402 2.75082C24.612 1.76451 23.3847 1.11146 22.048 0.892625C20.7114 0.673793 19.3399 0.901374 18.1456 1.54018C16.9513 2.17899 16.0007 3.19344 15.4407 4.4267C14.8808 5.65996 14.7427 7.04333 15.0479 8.36293C12.6016 8.24017 10.2084 7.60469 8.02341 6.49768C5.83847 5.39068 3.91055 3.83686 2.36465 1.93696C1.57894 3.29162 1.33851 4.89462 1.69223 6.42018C2.04594 7.94573 2.96727 9.27937 4.26895 10.15C3.29172 10.119 2.33591 9.85591 1.48047 9.38247V9.45864C1.47959 10.8802 1.97106 12.2583 2.87132 13.3585C3.77159 14.4588 5.02509 15.2133 6.41875 15.4938C5.51351 15.7415 4.56342 15.7776 3.64199 15.5993C4.03526 16.8219 4.8004 17.8912 5.83065 18.658C6.8609 19.4248 8.10484 19.8508 9.38887 19.8766C7.20897 21.589 4.51616 22.5177 1.74414 22.5133C1.25255 22.5126 0.761436 22.4824 0.273438 22.4231C3.08951 24.2297 6.36535 25.1893 9.71113 25.1875Z" fill="#F1E6F3"/>
</svg>
